<svg xmlns="http://www.w3.org/2000/svg" height="800" width="1200" viewBox="-44.25 -40.95775 383.5 245.7465"><path d="M246.899 69.09c-13.029.084-25.367.188-28.808-.118-6.96-.605-11.61-5.158-12.15-11.857-.365-4.397-.365-8.04-.02-11.507.631-6.523 6.088-12.735 12.17-13.034 2.179-.117 8.007-.104 18.563-.059l30.72.059V19.832s-24.47-.026-31.825-.059c-9.874-.045-14.843-.052-17.992.059-6.927.266-12.729 2.732-17.236 7.31-4.273 4.326-6.823 11.208-7.2 18.174-.215 3.76-.287 8.67 0 11.59.709 7.494 3.135 13.373 7.2 17.49 4.345 4.424 10.96 7.227 17.243 7.312 5.158.065 49.81 0 49.81 0V68.972s-13.561.052-20.475.117M108.22 20.515v12.729h30.31v48.242h12.794V33.244h30.31v-12.73zM94.931 44.587c-.091-6.855-2.51-12.735-7.2-17.49-4.892-4.976-12.352-7.044-17.237-7.304-4.247-.24-20.983-.163-24.911 0-5.536.234-9.568 1.886-11.591 3.395-.02.013-.04.007-.04-.026V0h-12.8v81.708h12.781s-.253-33.446.033-37.088c.507-6.472 5.418-11.558 11.682-12.105 5.02-.43 20.091-.312 24.82.007 6.491.449 11.285 5.522 11.662 12.358.124 2.517-.005 36.828-.005 36.828h12.807s.032-34.18 0-37.12" fill="#8cc751"/><path d="M284.507 142.471c2.647-.026 5.119-.546 5.112-2.68 0-.364.052-.787-.098-1.268-.357-.722-.826-.683-1.294-.618l.17-.039s-1.679.462-3.038.481h-.04c-1.398-.045-1.801-1.437-1.873-2.972a7.025 7.025 0 01-.026-.846c.033-2.348.761-5.919 1.236-7.915.143-.71.572-1.197 1.405-1.256 4.04-.312 9.054-.377 8.937-2.79 0-.007-.006-.026 0-.04-.006-2.08-2.036-2.542-3.61-2.581h-.156c-.631.006-4.221.41-4.228.41l-.377.045.097-.37c.371-1.386.742-3.038 1.496-4.684.13-.293.196-.611.196-.956.013-.729-.254-1.542-.65-2.147-.385-.598-.885-.975-1.256-.988h-.052c-.755.006-1.47.507-2.296 1.828-1.06 1.769-1.64 4.123-2.758 6.758-.11.383-.442.67-1.04.715-4.398.676-5.003 2.264-5.035 3.35v.052c.039 1.704.806 2.263 1.756 2.302h.027c.293.007 1.106-.299 1.678-.312h.065c.163.007.319.013.475.11.17.105.24.313.228.495 0 .098-.014.208-.04.345-.364 1.509-.975 5.268-1.008 7.31 0 .196 0 .371.014.534.091 2.205.54 4.364 1.457 5.62 1.054 1.372 2.283 2.068 4.345 2.107h.182m-24.164-14.108c-.084 4.67-3.33 7.675-3.577 11.845-.02.28-.033.54-.04.793.027 1.217.163 1.9 1.724 2.27.326.072.618.104.892.11 1.82.027 2.575-1.352 3.401-3.108.8-1.724 1.594-3.753 3.61-4.599l.351-.15.006.397c.026 4.013 2.4 6.036 4.469 6.062 1.71.013 3.284-1.261 3.343-4.188a9.1 9.1 0 00-.085-1.347.525.525 0 00-.325-.104c-.436-.013-1.021.338-1.554.351-.287.02-.612-.227-.657-.637.013-.846.065-1.782.078-2.719.02-1.43-.059-2.862-.488-3.883-.436-1.021-1.132-1.659-2.543-1.691-1.366-.026-2.498 1.015-3.05 1.554l-.45.43.006-.618.014-.586c-.046-.956-.209-1.268-.742-1.925-.618-.54-1.268-.78-1.893-.793-.969-.014-1.905.526-2.523 1.535.026.338.032.67.032 1.001m-13.418 3.103c-.04.006-1.347 4.215-3.545 4.397 0 0-1.522.247-1.49-1.353-.039-.995.944-2.576 1.444-3.24.618-.793 1.711-2.224 3.448-2.503l.26-.04.039.26c.04.241.059.469.071.684.052 1.112-.214 1.775-.227 1.795m4.989-5.633c-.098-1.047-1.92-3.259-3.168-3.129a1.05 1.05 0 00-.351.072l-.04.02c-4.318 1.105-10.946 6.79-10.588 13.626.032.722.143 1.464.344 2.225.443 1.593 1.724 2.77 4.15 2.666a8.15 8.15 0 001.008-.117c1.262-.344 2.745-1.196 3.428-2.166l.475-.663v1.034c.104 2.043 1.665 3.812 3.115 3.747.501-.026 1.009-.254 1.503-.794.169-.182.182-.423.215-.696.299-2.42.286-4.585.188-6.64-.084-1.744-.24-3.416-.319-5.068-.065-1.379-.084-2.758.04-4.117m-25.478 16.976h.006c1.509.014 2.66-.63 3.239-1.996.267-.65.384-2.505 1.353-5.067 2.127-4.157 4.995-11.949 4.995-12.111.456-2.57-1.255-3.923-3.37-3.61-2.12.305-2.113 2.706-2.555 5.145-.93 4.89-5.009 9.457-5.724 14.25v.06c-.026 1.638.787 3.037 2.042 3.33h.014zm-14.518-32.827c-4.162 6.654-9.177 18.518-9.333 30.122-.006.28-.006.565-.006.858.006 1.171.69 1.978 2.374 2.082.045 0 .091 0 .136.006 1.49 0 1.783-.956 2.101-1.49.228-.35.716-3.2 1.002-5.873l.006-.026c1.106-5.262 2.556-13.535 5.633-18.947.969-1.672 2.757-3.142 2.757-4.852a2.73 2.73 0 00-.019-.338c-.156-1.412-1.529-2.362-2.83-2.375-.715-.013-1.385.254-1.82.833m12.488-2.03c-3.057 10.076-8.606 20.275-9.679 32.47 0 1.145.345 2.062 1.548 2.303.137.013.28.026.417.032.969.014 1.918-.338 2.445-1.001 1.425-1.77.833-3.428 1.366-6.01.787-3.688 2.751-9.822 2.751-9.828 0-.007 3.116-9.594 5.711-14.85.182-.403.436-1.158.443-1.919.005-.884-.26-1.723-1.262-2.205l-.006-.006c-.56-.28-1.067-.39-1.51-.397a2.354 2.354 0 00-2.224 1.412m14.18-.313c-.02 1.711 1.17 3.52 2.953 3.545.553.013 1.17-.143 1.84-.52.885-.637 1.165-1.372 1.178-2.12.032-1.373-1.002-2.81-1.177-2.98-.254-.26-.774-.624-1.939-.643-.169 0-.357.006-.553.02h-.019c-1.607.285-2.25 1.417-2.283 2.698m-44.887 3.636c-.019 1.659 1.34 3.454 2.966 3.487h.046c1.821-.013 2.764-1.457 2.797-2.986.006-1.554-.91-3.07-2.96-3.109-.123 0-.253 0-.396.02-1.79.364-2.42 1.424-2.453 2.588m2.4 12.755c-.598 0-1.131.267-1.528 1.054-.917 3.805-3.753 8.664-3.818 13.562-.014.618.026 1.235.117 1.853.097.683.527 2.173 2.094 2.18h.189c1.932-.144 2.224-.593 2.277-1.4a6.454 6.454 0 01-.176-1.6c.084-4.266 3.948-8.071 3.968-11.863 0-.28-.014-.56-.052-.84-.163-1.359-1.75-2.933-3.032-2.946h-.039zm-21.815 17.816c3.05.143 3.467-5.594 4.436-7.52 2.107-3.967 4.872-5.04 8.15-5.866 0 0 1.483-.586 1.476-2.147a2.58 2.58 0 00-.02-.383c-.272-1.574-.65-1.841-1.658-2.017a7.513 7.513 0 00-1.008-.078c-3.272-.058-6.543 1.873-7.669 3.903l-.41.715-.077-.82c-.078-1.144.032-3.928-1.555-3.882h-.052c-2.12-.052-2.693 2.211-2.881 2.96-.456 2.985-.813 6.172-.852 9.131-.026 1.828.071 3.578.338 5.113.507.878 1.665.89 1.782.89m-14.446-5.639c-1.548 1.197-3.24 1.958-3.883 1.971l-.28-.006-.039-.729c0-2.03.403-2.601 1.145-3.564.865-1.119 2.68-2.42 3.974-2.42.267.007.78.072 1.015.202.318.156.468.735.455 1.06-.04 1.034-1.125 2.472-2.387 3.486m3.98-9.112a7.11 7.11 0 00-2.27-.416c-2.972-.052-4.975 2.107-7.018 3.96l-.605.554.176-.807c1.529-6.953 2.44-13.672 3.89-20.983.02-.13.058-.397.058-.722 0-1.203-.292-3.109-2.432-3.22-.072-.006-.15-.006-.228-.006-1.698-.026-2.452 1.268-2.823 2.459-.611 2.061-.65 4.826-.982 7.551-1.047 8.143-3.155 17.985-4.117 25.308.35 1.724 1.32 1.171 2.797 1.757l-.006.006c.11.04.11.085.13.098.013.026.013.032.02.045.005.013.005.02.005.026.006.02.013.033.02.052.005.033.025.078.045.137.052.11.124.267.254.43.247.311.67 1.046 1.476.767 7.597-2.29 10.914-3.714 13.633-7.949.573-.969.846-2.114.859-3.271.045-2.563-1.197-5.126-2.882-5.776m-65.557 33.992c0 .266.04.546.104.82.345 1.573 2.7 1.749 2.706 1.749a22.63 22.63 0 001.737.065c13.086 0 21.197-11.279 21.204-25.029a35.768 35.768 0 00-.716-7.148v-.026c-.013 0-.09-.71-.514-1.119-.52-.423-.943-.572-1.307-.572-.91-.026-1.71 1.073-2.407 2.374-.722 1.288-1.281 2.68-2.172 3.128-.657.293-1.203.443-1.672.443-1.522-.026-1.905-1.503-1.912-3.233 0-1.307.208-2.881.39-4.423.014-.098.02-.202.02-.306-.026-.709-.228-1.697-1.594-1.82h-.162c-1.77.006-2.296 1.248-2.53 2.146-.26 1.086-.905 2.757-.905 5.131 0 2.368.469 4.176.469 4.176.663 2.199 1.697 3.025 2.868 3.571a4.76 4.76 0 001.71.312c2.05.228 4.424-.657 4.619-1.457-.228 2.518-.449 4.827-1.034 7.149-.898 3.096-1.99 4.709-2.817 5.776-3.122 3.642-8.052 6.192-13.373 6.192-.182 0-.364 0-.514-.007-1.717.163-2.172 1.054-2.198 2.108m5.334-48.848c-1.1.644-1.262 1.802-1.79 3.337-.311.878-4.656 21.38-4.643 23.87v.04c-.202 2.953 1.775 3.772 1.775 3.772.222.046.937.065.937.065 1.607.026 2.27-1.75 2.55-2.706.611-2.172.579-4.767 1.086-7.428.761-3.987 3.512-15.174 3.707-16.813.092-.722.215-1.327.215-1.958.137-1.665-1.43-2.634-2.335-2.64-.468 0-.982.155-1.502.46m-18.688 29.908c1.743-.065 2.842-.67 2.855-2.264v-.065c-.013-.871-.611-1.424-1.392-2.048-.481-.397-.839-.761-.93-2.316a11.965 11.965 0 01-.026-.742c.006-2.582.716-7.447 1.177-9.496.124-.709.534-1.3 1.405-1.288.625-.006 1.711-.071 2.231-.084.56-.007 2.056.039 3.396-.267 1.36-.319 2.432-.93 2.426-2.211v-.046c-.052-2.14-1.73-2.218-3.278-2.244-.059 0-4.326.267-4.326.267l.124-.371c.436-1.32.975-3.096 1.854-4.787.37-.599 1.645-4.976-1.92-4.976-1.014.137-1.95 1.21-2.868 3.174-1.08 2.4-1.112 3.434-2.393 6.504-.091.358-.43.755-1.073.729-1.184.02-2.05.182-2.927.182-.293 0-.65.046-.97-.007-.637 0-1.307.469-1.307.469-.228.28-.644.475-.767 1.548v.058c.026 1.718.702 2.693 1.535 2.68l3.07.085c.156.006.312.013.468.11.156.11.228.312.221.482 0 .104-.02.214-.045.35-.365 1.62-1.152 7.266-1.152 9.211 0 .052 0 .091.006.13.078 3.5 1.1 7.259 4.508 7.233.013 0 .032-.007.045-.007.02 0 .04.007.052.007m-20.196-10.557l.033-.227c.35-2.069 2.53-3.766 3.668-3.805.02 0 .052 0 .091.006.605.065.93.586.93 1.04v.079c0 1.828-2.354 2.946-3.688 3.005-.117 0-.709-.013-.806-.033l-.228-.065zm10.505 3.135c-.143-.26-.371-.429-.566-.429-.156 0-.41-.02-.761.332-1.529 1.515-2.66 3.48-5.275 3.486 0 0-.02 0-.052.007-1.847.02-2.485-.924-2.823-2.504l-.059-.235.234-.078c1.672-.26 7.038-1.899 7-6.192 0-.657-.118-1.385-.391-2.192-.605-1.775-2.107-2.517-3.89-2.523-3.096-.013-6.276 2.133-7.083 5.541l-.032.404-.352-.196c-.28-.15-.54-.214-.793-.214-1.04 0-1.965 1.197-1.971 2.302.006.091.006.176.02.254.26 1.45.91 2.303 1.957 2.927l.13.072v.156c0 .052-.006.097-.006.143.02 4.676 3.135 6.64 6.576 6.66 3.955-.006 8.183-2.693 8.274-7.116 0 0 0-.364-.137-.605m-69.557 2.59s-.469-.066-.65-.202c-.534-.384-.768-.963-.762-1.581.026-2.257 2.706-5.496 4.417-7.226 1.6-1.594 2.406-2.218 3.22-2.238.28 0 .533.091.773.228.39.208.54.637.54 1.1-.084 2.855-4.962 9.795-7.538 9.918m13.373-12.026c.006-.956-.358-1.86-.365-1.88-1.196-1.88-2.738-2.64-4.468-2.647-2.992-.007-6.576 2.393-9.373 5.691-2.81 3.291-4.832 7.454-4.826 10.862 0 2.16.787 3.987 2.66 5.19a3.907 3.907 0 001.698.404c3.044.026 6.003-3.799 7.857-5.464l.416-.357-.019.546c-.325 8.638-3.155 23.637-3.155 23.702.006 1.528 1.054 2.497 2.218 2.497.469 0 .97-.156 1.425-.507 2.354-2.309 2.198-6.875 2.862-11.291 1.08-7.077.624-14.778 2.023-21.36.435-2.024.923-4.072.988-4.736 0 0 .059-.442.059-.65m16.65 11.857c.742 3.389.886 5.405 5.263 6.043.332.006.826-.241 1.21-.67.39-.423.663-1.008.663-1.633 0-.189-.02-.37-.065-.54-.449-1.3-1.268-1.372-1.815-2.836-.331-.917-.435-1.944-.435-2.998 0-2.264.494-4.683.487-6.504-.045-1.835-.39-2.862-2.166-2.888-.104 0-.22.006-.344.02-.052-.014-.729.22-1.184 1.033-2.049 3.52-4.202 8.508-7.857 8.853-.664-.104-.904-.748-.885-1.444.006-2.27 1.932-6.79 2.862-9.497a3.17 3.17 0 00.11-.82c0-1.521-1.632-2.464-2.68-2.458-1.053.007-2.14.52-2.783 1.743-.878 1.626-2.134 6.752-2.127 11.22 0 2.062.267 3.988.924 5.366.676 1.38 1.671 2.199 3.258 2.205.085 0 .17 0 .254-.006 2.985-.143 4.833-2.888 6.908-4.352l.318-.22.085.383zm13.562 4.599c1.028 0 1.802-.254 1.971-.904.852-5.126 1.926-8.476 3.096-12.892.059-.286.091-.56.091-.833-.013-1.463-.832-2.627-2.23-2.627-.456 0-.99.13-1.562.41-2.692 1.788-3.447 9.08-4.084 14.355-.006.065-.006.143-.006.227 0 1.125.741 2.023 1.665 2.186.358.045.716.078 1.06.078m3.994-31.709c-.598.598-.84 1.6-.84 2.303.007 1.918 1.835 3.401 3.598 3.401 1.125-.006 2.478-.566 2.784-2.049.005-.071.005-.136.005-.201 0-1.919-1.645-4.117-3.616-4.117-.624 0-1.294.208-1.932.663m233.994 9.535l-.254-.065z"/></svg>